<svg width="229" height="62" viewBox="0 0 229 62" fill="none" xmlns="http://www.w3.org/2000/svg">
<path d="M38.0833 0.820083C32.912 -0.393627 27.5155 -0.258183 22.4116 1.21343C17.3077 2.68503 12.6676 5.44343 8.9363 9.22403C5.205 13.0046 2.50775 17.6806 1.10326 22.8034C-0.301227 27.9261 -0.365827 33.3239 0.915658 38.4788C2.19714 43.6337 4.78172 48.3729 8.42146 52.2417C12.0612 56.1105 16.634 58.9792 21.7012 60.5725C26.7685 62.1658 32.1601 62.4304 37.359 61.3408C42.5578 60.2512 47.3895 57.844 51.3905 54.3501L36.5273 37.3295C35.4427 38.2766 34.133 38.9291 32.7237 39.2245C31.3145 39.5198 29.853 39.4481 28.4794 39.0162C27.1058 38.5843 25.8663 37.8067 24.8796 36.758C23.893 35.7093 23.1924 34.4246 22.845 33.0273C22.4977 31.6299 22.5152 30.1668 22.8959 28.7781C23.2766 27.3895 24.0078 26.122 25.0192 25.0972C26.0306 24.0724 27.2884 23.3247 28.672 22.9258C30.0555 22.5269 31.5183 22.4901 32.9201 22.8191L38.0833 0.820083Z" fill="#002B6C"/>
<path d="M48.5778 5.46527C43.2425 1.79256 36.8909 -0.116736 30.4149 0.00552278C23.9389 0.127781 17.6638 2.27546 12.471 6.14692C7.27816 10.0184 3.42844 15.4192 1.46246 21.5908C-0.503512 27.7624 -0.486972 34.3947 1.50976 40.5564C3.50649 46.7182 7.38311 52.0997 12.5952 55.9452C17.8072 59.7907 24.0929 61.9071 30.5695 61.997C37.046 62.087 43.388 60.146 48.7049 56.4467C54.0218 52.7475 58.0463 47.4757 60.2134 41.3718L44.8509 35.9176C43.8234 38.8116 41.9152 41.311 39.3944 43.065C36.8735 44.8189 33.8666 45.7391 30.7959 45.6965C27.7252 45.6538 24.745 44.6504 22.2738 42.8272C19.8026 41.0039 17.9646 38.4524 17.0179 35.531C16.0712 32.6095 16.0634 29.4649 16.9955 26.5388C17.9276 23.6127 19.7529 21.0521 22.2149 19.2165C24.677 17.3809 27.6521 16.3627 30.7226 16.3047C33.793 16.2467 36.8045 17.152 39.3341 18.8933L48.5778 5.46527Z" fill="#0E4495"/>
<path d="M53.7435 9.93504C48.8289 4.62877 42.2136 1.20795 35.0427 0.264739C27.8719 -0.678468 20.597 0.915319 14.4774 4.7702C8.35771 8.62508 3.77855 14.4984 1.53258 21.3734C-0.713388 28.2484 -0.484789 35.6924 2.17881 42.4166C4.8424 49.1408 9.77333 54.7221 16.118 58.1942C22.4626 61.6663 29.8216 62.8107 36.9211 61.4293C44.0205 60.0478 50.4134 56.2275 54.9932 50.6297C59.573 45.0319 62.0513 38.0089 61.9992 30.7765L52.9411 30.8418C52.978 35.9609 51.2239 40.9317 47.9823 44.8938C44.7408 48.856 40.2159 51.56 35.1909 52.5377C30.166 53.5155 24.9573 52.7055 20.4666 50.248C15.9758 47.7904 12.4857 43.84 10.6005 39.0806C8.71517 34.3212 8.55337 29.0524 10.1431 24.1863C11.7328 19.3202 14.9739 15.1631 19.3053 12.4346C23.6368 9.70617 28.786 8.57809 33.8614 9.24569C38.9369 9.91329 43.6192 12.3345 47.0978 16.0903L53.7435 9.93504Z" fill="#1A6CCA"/>
<path d="M83.592 29.76H91.656V32.88H83.592V29.76ZM83.88 39H79.992V22.2H92.688V25.32H83.88V39ZM100.199 39.192C99.1274 39.192 98.1674 38.984 97.3194 38.568C96.4874 38.152 95.8394 37.52 95.3754 36.672C94.9114 35.808 94.6794 34.712 94.6794 33.384V26.088H98.4234V32.832C98.4234 33.904 98.6474 34.696 99.0954 35.208C99.5594 35.704 100.207 35.952 101.039 35.952C101.615 35.952 102.127 35.832 102.575 35.592C103.023 35.336 103.375 34.952 103.631 34.44C103.887 33.912 104.015 33.256 104.015 32.472V26.088H107.759V39H104.207V35.448L104.855 36.48C104.423 37.376 103.783 38.056 102.935 38.52C102.103 38.968 101.191 39.192 100.199 39.192ZM116.508 39.192C114.988 39.192 113.804 38.808 112.956 38.04C112.108 37.256 111.684 36.096 111.684 34.56V23.232H115.428V34.512C115.428 35.056 115.572 35.48 115.86 35.784C116.148 36.072 116.54 36.216 117.036 36.216C117.628 36.216 118.132 36.056 118.548 35.736L119.556 38.376C119.172 38.648 118.708 38.856 118.164 39C117.636 39.128 117.084 39.192 116.508 39.192ZM109.692 29.256V26.376H118.644V29.256H109.692ZM127.106 39.192C126.034 39.192 125.074 38.984 124.226 38.568C123.394 38.152 122.746 37.52 122.282 36.672C121.818 35.808 121.586 34.712 121.586 33.384V26.088H125.33V32.832C125.33 33.904 125.554 34.696 126.002 35.208C126.466 35.704 127.114 35.952 127.946 35.952C128.522 35.952 129.034 35.832 129.482 35.592C129.93 35.336 130.282 34.952 130.538 34.44C130.794 33.912 130.922 33.256 130.922 32.472V26.088H134.666V39H131.114V35.448L131.762 36.48C131.33 37.376 130.69 38.056 129.842 38.52C129.01 38.968 128.098 39.192 127.106 39.192ZM138.134 39V26.088H141.71V29.736L141.206 28.68C141.59 27.768 142.206 27.08 143.054 26.616C143.902 26.136 144.934 25.896 146.15 25.896V29.352C145.99 29.336 145.846 29.328 145.718 29.328C145.59 29.312 145.454 29.304 145.31 29.304C144.286 29.304 143.454 29.6 142.814 30.192C142.19 30.768 141.878 31.672 141.878 32.904V39H138.134ZM154.691 39.192C153.219 39.192 151.923 38.904 150.803 38.328C149.699 37.752 148.843 36.968 148.235 35.976C147.627 34.968 147.323 33.824 147.323 32.544C147.323 31.248 147.619 30.104 148.211 29.112C148.819 28.104 149.643 27.32 150.683 26.76C151.723 26.184 152.899 25.896 154.211 25.896C155.475 25.896 156.611 26.168 157.619 26.712C158.643 27.24 159.451 28.008 160.043 29.016C160.635 30.008 160.931 31.2 160.931 32.592C160.931 32.736 160.923 32.904 160.907 33.096C160.891 33.272 160.875 33.44 160.859 33.6H150.371V31.416H158.891L157.451 32.064C157.451 31.392 157.315 30.808 157.043 30.312C156.771 29.816 156.395 29.432 155.915 29.16C155.435 28.872 154.875 28.728 154.235 28.728C153.595 28.728 153.027 28.872 152.531 29.16C152.051 29.432 151.675 29.824 151.403 30.336C151.131 30.832 150.995 31.424 150.995 32.112V32.688C150.995 33.392 151.147 34.016 151.451 34.56C151.771 35.088 152.211 35.496 152.771 35.784C153.347 36.056 154.019 36.192 154.787 36.192C155.475 36.192 156.075 36.088 156.587 35.88C157.115 35.672 157.595 35.36 158.027 34.944L160.019 37.104C159.427 37.776 158.683 38.296 157.787 38.664C156.891 39.016 155.859 39.192 154.691 39.192ZM167.767 39.192C166.663 39.192 165.599 39.064 164.575 38.808C163.567 38.536 162.767 38.2 162.175 37.8L163.423 35.112C164.015 35.48 164.711 35.784 165.511 36.024C166.327 36.248 167.127 36.36 167.911 36.36C168.775 36.36 169.383 36.256 169.735 36.048C170.103 35.84 170.287 35.552 170.287 35.184C170.287 34.88 170.143 34.656 169.855 34.512C169.583 34.352 169.215 34.232 168.751 34.152C168.287 34.072 167.775 33.992 167.215 33.912C166.671 33.832 166.119 33.728 165.559 33.6C164.999 33.456 164.487 33.248 164.023 32.976C163.559 32.704 163.183 32.336 162.895 31.872C162.623 31.408 162.487 30.808 162.487 30.072C162.487 29.256 162.719 28.536 163.183 27.912C163.663 27.288 164.351 26.8 165.247 26.448C166.143 26.08 167.215 25.896 168.463 25.896C169.343 25.896 170.239 25.992 171.151 26.184C172.063 26.376 172.823 26.656 173.431 27.024L172.183 29.688C171.559 29.32 170.927 29.072 170.287 28.944C169.663 28.8 169.055 28.728 168.463 28.728C167.631 28.728 167.023 28.84 166.639 29.064C166.255 29.288 166.063 29.576 166.063 29.928C166.063 30.248 166.199 30.488 166.471 30.648C166.759 30.808 167.135 30.936 167.599 31.032C168.063 31.128 168.567 31.216 169.111 31.296C169.671 31.36 170.231 31.464 170.791 31.608C171.351 31.752 171.855 31.96 172.303 32.232C172.767 32.488 173.143 32.848 173.431 33.312C173.719 33.76 173.863 34.352 173.863 35.088C173.863 35.888 173.623 36.6 173.143 37.224C172.663 37.832 171.967 38.312 171.055 38.664C170.159 39.016 169.063 39.192 167.767 39.192ZM189.378 39.288C188.002 39.288 186.77 38.952 185.682 38.28C184.594 37.592 183.738 36.6 183.114 35.304C182.49 34.008 182.178 32.44 182.178 30.6C182.178 28.76 182.49 27.192 183.114 25.896C183.738 24.6 184.594 23.616 185.682 22.944C186.77 22.256 188.002 21.912 189.378 21.912C190.77 21.912 192.002 22.256 193.074 22.944C194.162 23.616 195.018 24.6 195.642 25.896C196.266 27.192 196.578 28.76 196.578 30.6C196.578 32.44 196.266 34.008 195.642 35.304C195.018 36.6 194.162 37.592 193.074 38.28C192.002 38.952 190.77 39.288 189.378 39.288ZM189.378 36C190.034 36 190.602 35.816 191.082 35.448C191.578 35.08 191.962 34.496 192.234 33.696C192.522 32.896 192.666 31.864 192.666 30.6C192.666 29.336 192.522 28.304 192.234 27.504C191.962 26.704 191.578 26.12 191.082 25.752C190.602 25.384 190.034 25.2 189.378 25.2C188.738 25.2 188.17 25.384 187.674 25.752C187.194 26.12 186.81 26.704 186.522 27.504C186.25 28.304 186.114 29.336 186.114 30.6C186.114 31.864 186.25 32.896 186.522 33.696C186.81 34.496 187.194 35.08 187.674 35.448C188.17 35.816 188.738 36 189.378 36ZM197.393 39L203.177 31.416L203.105 33.48L197.561 26.088H201.761L205.265 30.912L203.681 30.96L207.305 26.088H211.289L205.721 33.408V31.392L211.481 39H207.233L203.561 33.864L205.121 34.08L201.473 39H197.393ZM221.274 39.288C219.978 39.288 218.77 39.08 217.65 38.664C216.546 38.232 215.586 37.624 214.77 36.84C213.954 36.056 213.314 35.136 212.85 34.08C212.402 33.024 212.178 31.864 212.178 30.6C212.178 29.336 212.402 28.176 212.85 27.12C213.314 26.064 213.954 25.144 214.77 24.36C215.602 23.576 216.57 22.976 217.674 22.56C218.778 22.128 219.986 21.912 221.298 21.912C222.754 21.912 224.066 22.168 225.234 22.68C226.418 23.176 227.41 23.912 228.21 24.888L225.714 27.192C225.138 26.536 224.498 26.048 223.794 25.728C223.09 25.392 222.322 25.224 221.49 25.224C220.706 25.224 219.986 25.352 219.33 25.608C218.674 25.864 218.106 26.232 217.626 26.712C217.146 27.192 216.77 27.76 216.498 28.416C216.242 29.072 216.114 29.8 216.114 30.6C216.114 31.4 216.242 32.128 216.498 32.784C216.77 33.44 217.146 34.008 217.626 34.488C218.106 34.968 218.674 35.336 219.33 35.592C219.986 35.848 220.706 35.976 221.49 35.976C222.322 35.976 223.09 35.816 223.794 35.496C224.498 35.16 225.138 34.656 225.714 33.984L228.21 36.288C227.41 37.264 226.418 38.008 225.234 38.52C224.066 39.032 222.746 39.288 221.274 39.288Z" fill="white" fill-opacity="0.9"/>
</svg>
