<svg width="62" height="62" viewBox="0 0 62 62" fill="none" xmlns="http://www.w3.org/2000/svg">
<path d="M38.0833 0.820083C32.912 -0.393627 27.5155 -0.258183 22.4116 1.21343C17.3077 2.68503 12.6676 5.44343 8.9363 9.22403C5.205 13.0046 2.50775 17.6806 1.10326 22.8034C-0.301227 27.9261 -0.365827 33.3239 0.915658 38.4788C2.19714 43.6337 4.78172 48.3729 8.42146 52.2417C12.0612 56.1105 16.634 58.9792 21.7012 60.5725C26.7685 62.1658 32.1601 62.4304 37.359 61.3408C42.5578 60.2512 47.3895 57.844 51.3905 54.3501L36.5273 37.3295C35.4427 38.2766 34.133 38.9291 32.7237 39.2245C31.3145 39.5198 29.853 39.4481 28.4794 39.0162C27.1058 38.5843 25.8663 37.8067 24.8796 36.758C23.893 35.7093 23.1924 34.4246 22.845 33.0273C22.4977 31.6299 22.5152 30.1668 22.8959 28.7781C23.2766 27.3895 24.0078 26.122 25.0192 25.0972C26.0306 24.0724 27.2884 23.3247 28.672 22.9258C30.0555 22.5269 31.5183 22.4901 32.9201 22.8191L38.0833 0.820083Z" fill="#002B6C"/>
<path d="M48.5778 5.46527C43.2425 1.79256 36.8909 -0.116736 30.4149 0.00552278C23.9389 0.127781 17.6638 2.27545 12.471 6.14692C7.27816 10.0184 3.42844 15.4192 1.46246 21.5908C-0.503512 27.7624 -0.486972 34.3947 1.50976 40.5564C3.50649 46.7182 7.38311 52.0997 12.5952 55.9452C17.8072 59.7907 24.0929 61.9071 30.5695 61.997C37.046 62.087 43.388 60.146 48.7049 56.4467C54.0218 52.7475 58.0463 47.4757 60.2134 41.3718L44.8509 35.9176C43.8234 38.8116 41.9152 41.311 39.3944 43.065C36.8735 44.8189 33.8666 45.7391 30.7959 45.6965C27.7252 45.6538 24.745 44.6504 22.2738 42.8272C19.8026 41.0039 17.9646 38.4524 17.0179 35.531C16.0712 32.6095 16.0634 29.4649 16.9955 26.5388C17.9276 23.6127 19.7529 21.0521 22.2149 19.2165C24.677 17.3809 27.6521 16.3627 30.7226 16.3047C33.793 16.2467 36.8045 17.152 39.3341 18.8933L48.5778 5.46527Z" fill="#0E4495"/>
<path d="M53.7435 9.93504C48.8289 4.62877 42.2136 1.20795 35.0427 0.264739C27.8719 -0.678468 20.597 0.915319 14.4774 4.7702C8.35771 8.62508 3.77855 14.4984 1.53258 21.3734C-0.713388 28.2484 -0.484789 35.6924 2.17881 42.4166C4.8424 49.1408 9.77333 54.7221 16.118 58.1942C22.4626 61.6663 29.8216 62.8107 36.9211 61.4293C44.0205 60.0478 50.4134 56.2275 54.9932 50.6297C59.573 45.0319 62.0513 38.0089 61.9992 30.7765L52.9411 30.8418C52.978 35.9609 51.2239 40.9317 47.9823 44.8938C44.7408 48.856 40.2159 51.56 35.1909 52.5377C30.166 53.5155 24.9573 52.7055 20.4666 50.248C15.9758 47.7904 12.4857 43.84 10.6005 39.0806C8.71517 34.3212 8.55337 29.0524 10.1431 24.1863C11.7328 19.3202 14.9739 15.1631 19.3053 12.4346C23.6368 9.70617 28.786 8.57809 33.8614 9.24569C38.9369 9.91329 43.6192 12.3345 47.0978 16.0903L53.7435 9.93504Z" fill="#1A6CCA"/>
</svg>
