<svg width="236" height="237" viewBox="0 0 236 237" fill="none" xmlns="http://www.w3.org/2000/svg">
<g id="Vector" style="mix-blend-mode:screen">
<path d="M88.2834 4.0821C93.8983 2.697 102.191 1.13875 106.683 0.792476C111.175 0.359631 115.494 0.0133543 116.185 0.0133543C116.876 -0.0732149 121.973 0.273062 127.415 0.705907C132.857 1.13875 141.409 2.52386 146.419 3.73583C151.429 5.03436 159.204 7.54487 163.696 9.44939C168.188 11.3539 175.012 14.8167 178.813 17.154C182.614 19.4048 188.833 23.8199 192.634 26.8498C196.435 29.9663 202.136 35.3336 205.332 38.8829C208.529 42.4322 211.206 45.8084 211.206 46.4144C211.206 47.1935 208.183 47.4532 186.587 47.4532L180.109 40.6143C176.567 36.8052 172.68 33.5156 171.47 33.1693C170.261 32.8231 168.361 32.9962 167.151 33.6022C165.942 34.2082 162.227 37.5844 152.898 47.4532H88.8018C46.5605 47.4532 24.6192 47.1935 24.6192 46.5875C24.6192 46.1547 26.8651 43.1248 29.543 40.0083C32.3073 36.8052 37.8358 31.4379 41.8958 28.0618C45.9558 24.599 52.5209 19.9243 56.5809 17.5003C60.6409 15.163 67.1196 11.7868 71.0932 9.9688C74.9805 8.23742 82.7549 5.55378 88.2834 4.0821Z" fill="#F0F0F0" fill-opacity="0.9"/>
<path d="M124.564 78.6181C125.946 78.0987 129.747 74.8091 133.116 71.2598C138.213 65.8059 139.595 64.7671 141.927 64.7671C144.26 64.7671 145.728 65.8925 158.34 79.051L229.692 79.9167L231.247 85.1108C232.111 87.9676 233.407 93.5946 234.098 97.6633C234.789 101.732 235.394 105.887 235.394 108.917H190.734C149.615 108.917 145.815 108.744 143.741 107.359C142.532 106.58 139.681 103.723 137.435 101.126C135.103 98.529 132.598 95.8454 131.821 95.2394C131.043 94.6334 129.143 94.2006 127.674 94.2006C125.255 94.2006 123.787 95.326 111.175 108.484L0 109.004L0.691064 103.983C1.0366 101.213 2.07319 95.6722 3.02341 91.6035C3.97362 87.5348 5.26936 83.1197 6.91064 79.3972L64.5281 79.4838C102.105 79.4838 123.096 79.1375 124.564 78.6181Z" fill="#F0F0F0" fill-opacity="0.9"/>
<path d="M91.4796 131.858C93.812 129.088 96.4898 126.577 97.4401 126.231C98.3903 125.885 100.377 125.971 101.846 126.404C103.314 126.837 105.992 128.915 107.979 131.252C109.879 133.503 112.471 136.36 116.185 140.082H174.926C230.297 140.082 233.666 140.169 233.666 141.64C233.666 142.42 232.889 146.055 231.852 149.605C230.902 153.154 228.915 159.127 225.028 169.516L101.068 169.429L95.0213 162.85C91.7388 159.301 88.1971 156.011 87.2469 155.665C86.2966 155.318 84.569 155.405 83.3596 155.838C82.1503 156.271 78.4358 159.474 69.1064 169.516H11.2298L8.98383 164.062C7.68809 161.118 5.87405 155.924 4.92383 152.635C3.88724 149.345 2.93702 145.103 2.15958 140.082H42.0685C79.1269 140.082 82.2366 139.996 84.6554 138.524C86.1239 137.658 89.1473 134.628 91.4796 131.858Z" fill="#F0F0F0" fill-opacity="0.9"/>
<path d="M43.969 191.851C46.7332 188.821 49.843 185.964 50.8796 185.358C51.9162 184.752 53.4711 184.319 54.4213 184.319C55.4579 184.319 58.9132 187.176 69.9703 198.949H136.226C194.621 198.949 202.568 199.122 202.568 200.248C202.568 200.94 199.977 203.884 196.694 206.827C193.498 209.684 187.797 214.099 183.996 216.609C180.195 219.12 174.407 222.583 171.038 224.314C167.669 225.959 161.45 228.556 157.217 230.028C152.984 231.586 145.555 233.577 140.804 234.616C133.98 236.087 129.143 236.434 117.913 236.434C106.683 236.434 101.846 236.087 95.0213 234.616C90.2703 233.577 82.8413 231.586 78.6086 230.028C74.3758 228.556 68.329 226.045 65.2192 224.487C62.1094 222.929 56.0626 219.293 51.8298 216.436C47.5107 213.493 41.6366 208.991 38.6132 206.394C35.6762 203.711 33.2575 201.027 33.2575 200.507C33.2575 199.901 34.4668 198.949 36.0217 198.343C37.5766 197.824 41.2047 194.88 43.969 191.851Z" fill="#F0F0F0" fill-opacity="0.9"/>
</g>
</svg>
