<svg width="229" height="62" viewBox="0 0 229 62" fill="none" xmlns="http://www.w3.org/2000/svg">
<path d="M38.0833 0.820083C32.912 -0.393627 27.5155 -0.258183 22.4116 1.21343C17.3077 2.68503 12.6676 5.44343 8.9363 9.22403C5.205 13.0046 2.50775 17.6806 1.10326 22.8034C-0.301227 27.9261 -0.365827 33.3239 0.915658 38.4788C2.19714 43.6337 4.78172 48.3729 8.42146 52.2417C12.0612 56.1105 16.634 58.9792 21.7012 60.5725C26.7685 62.1658 32.1601 62.4304 37.359 61.3408C42.5578 60.2512 47.3895 57.844 51.3905 54.3501L36.5273 37.3295C35.4427 38.2766 34.133 38.9291 32.7237 39.2245C31.3145 39.5198 29.853 39.4481 28.4794 39.0162C27.1058 38.5843 25.8663 37.8067 24.8796 36.758C23.893 35.7093 23.1924 34.4246 22.845 33.0273C22.4977 31.6299 22.5152 30.1668 22.8959 28.7781C23.2766 27.3895 24.0078 26.122 25.0192 25.0972C26.0306 24.0724 27.2884 23.3247 28.672 22.9258C30.0555 22.5269 31.5183 22.4901 32.9201 22.8191L38.0833 0.820083Z" fill="#002B6C"/>
<path d="M48.5778 5.46527C43.2425 1.79256 36.8909 -0.116736 30.4149 0.00552278C23.9389 0.127781 17.6638 2.27545 12.471 6.14692C7.27816 10.0184 3.42844 15.4192 1.46246 21.5908C-0.503512 27.7624 -0.486972 34.3947 1.50976 40.5564C3.50649 46.7182 7.38311 52.0997 12.5952 55.9452C17.8072 59.7907 24.0929 61.9071 30.5695 61.997C37.046 62.087 43.388 60.146 48.7049 56.4467C54.0218 52.7475 58.0463 47.4757 60.2134 41.3718L44.8509 35.9176C43.8234 38.8116 41.9152 41.311 39.3944 43.065C36.8735 44.8189 33.8666 45.7391 30.7959 45.6965C27.7252 45.6538 24.745 44.6504 22.2738 42.8272C19.8026 41.0039 17.9646 38.4524 17.0179 35.531C16.0712 32.6095 16.0634 29.4649 16.9955 26.5388C17.9276 23.6127 19.7529 21.0521 22.2149 19.2165C24.677 17.3809 27.6521 16.3627 30.7226 16.3047C33.793 16.2467 36.8045 17.152 39.3341 18.8933L48.5778 5.46527Z" fill="#0E4495"/>
<path d="M53.7435 9.93504C48.8289 4.62877 42.2136 1.20795 35.0427 0.264739C27.8719 -0.678468 20.597 0.915319 14.4774 4.7702C8.35771 8.62508 3.77855 14.4984 1.53258 21.3734C-0.713388 28.2484 -0.484789 35.6924 2.17881 42.4166C4.8424 49.1408 9.77333 54.7221 16.118 58.1942C22.4626 61.6663 29.8216 62.8107 36.9211 61.4293C44.0205 60.0478 50.4134 56.2275 54.9932 50.6297C59.573 45.0319 62.0513 38.0089 61.9992 30.7765L52.9411 30.8418C52.978 35.9609 51.2239 40.9317 47.9823 44.8938C44.7408 48.856 40.2159 51.56 35.1909 52.5377C30.166 53.5155 24.9573 52.7055 20.4666 50.248C15.9758 47.7904 12.4857 43.84 10.6005 39.0806C8.71517 34.3212 8.55337 29.0524 10.1431 24.1863C11.7328 19.3202 14.9739 15.1631 19.3053 12.4346C23.6368 9.70617 28.786 8.57809 33.8614 9.24569C38.9369 9.91329 43.6192 12.3345 47.0978 16.0903L53.7435 9.93504Z" fill="#1A6CCA"/>
<mask id="path-4-outside-1_444_4" maskUnits="userSpaceOnUse" x="77" y="19" width="154" height="23" fill="black">
<rect fill="white" x="77" y="19" width="154" height="23"/>
<path d="M83.592 29.76H91.656V32.88H83.592V29.76ZM83.88 39H79.992V22.2H92.688V25.32H83.88V39ZM100.199 39.192C99.1274 39.192 98.1674 38.984 97.3194 38.568C96.4874 38.152 95.8394 37.52 95.3754 36.672C94.9114 35.808 94.6794 34.712 94.6794 33.384V26.088H98.4234V32.832C98.4234 33.904 98.6474 34.696 99.0954 35.208C99.5594 35.704 100.207 35.952 101.039 35.952C101.615 35.952 102.127 35.832 102.575 35.592C103.023 35.336 103.375 34.952 103.631 34.44C103.887 33.912 104.015 33.256 104.015 32.472V26.088H107.759V39H104.207V35.448L104.855 36.48C104.423 37.376 103.783 38.056 102.935 38.52C102.103 38.968 101.191 39.192 100.199 39.192ZM116.508 39.192C114.988 39.192 113.804 38.808 112.956 38.04C112.108 37.256 111.684 36.096 111.684 34.56V23.232H115.428V34.512C115.428 35.056 115.572 35.48 115.86 35.784C116.148 36.072 116.54 36.216 117.036 36.216C117.628 36.216 118.132 36.056 118.548 35.736L119.556 38.376C119.172 38.648 118.708 38.856 118.164 39C117.636 39.128 117.084 39.192 116.508 39.192ZM109.692 29.256V26.376H118.644V29.256H109.692ZM127.106 39.192C126.034 39.192 125.074 38.984 124.226 38.568C123.394 38.152 122.746 37.52 122.282 36.672C121.818 35.808 121.586 34.712 121.586 33.384V26.088H125.33V32.832C125.33 33.904 125.554 34.696 126.002 35.208C126.466 35.704 127.114 35.952 127.946 35.952C128.522 35.952 129.034 35.832 129.482 35.592C129.93 35.336 130.282 34.952 130.538 34.44C130.794 33.912 130.922 33.256 130.922 32.472V26.088H134.666V39H131.114V35.448L131.762 36.48C131.33 37.376 130.69 38.056 129.842 38.52C129.01 38.968 128.098 39.192 127.106 39.192ZM138.134 39V26.088H141.71V29.736L141.206 28.68C141.59 27.768 142.206 27.08 143.054 26.616C143.902 26.136 144.934 25.896 146.15 25.896V29.352C145.99 29.336 145.846 29.328 145.718 29.328C145.59 29.312 145.454 29.304 145.31 29.304C144.286 29.304 143.454 29.6 142.814 30.192C142.19 30.768 141.878 31.672 141.878 32.904V39H138.134ZM154.691 39.192C153.219 39.192 151.923 38.904 150.803 38.328C149.699 37.752 148.843 36.968 148.235 35.976C147.627 34.968 147.323 33.824 147.323 32.544C147.323 31.248 147.619 30.104 148.211 29.112C148.819 28.104 149.643 27.32 150.683 26.76C151.723 26.184 152.899 25.896 154.211 25.896C155.475 25.896 156.611 26.168 157.619 26.712C158.643 27.24 159.451 28.008 160.043 29.016C160.635 30.008 160.931 31.2 160.931 32.592C160.931 32.736 160.923 32.904 160.907 33.096C160.891 33.272 160.875 33.44 160.859 33.6H150.371V31.416H158.891L157.451 32.064C157.451 31.392 157.315 30.808 157.043 30.312C156.771 29.816 156.395 29.432 155.915 29.16C155.435 28.872 154.875 28.728 154.235 28.728C153.595 28.728 153.027 28.872 152.531 29.16C152.051 29.432 151.675 29.824 151.403 30.336C151.131 30.832 150.995 31.424 150.995 32.112V32.688C150.995 33.392 151.147 34.016 151.451 34.56C151.771 35.088 152.211 35.496 152.771 35.784C153.347 36.056 154.019 36.192 154.787 36.192C155.475 36.192 156.075 36.088 156.587 35.88C157.115 35.672 157.595 35.36 158.027 34.944L160.019 37.104C159.427 37.776 158.683 38.296 157.787 38.664C156.891 39.016 155.859 39.192 154.691 39.192ZM167.767 39.192C166.663 39.192 165.599 39.064 164.575 38.808C163.567 38.536 162.767 38.2 162.175 37.8L163.423 35.112C164.015 35.48 164.711 35.784 165.511 36.024C166.327 36.248 167.127 36.36 167.911 36.36C168.775 36.36 169.383 36.256 169.735 36.048C170.103 35.84 170.287 35.552 170.287 35.184C170.287 34.88 170.143 34.656 169.855 34.512C169.583 34.352 169.215 34.232 168.751 34.152C168.287 34.072 167.775 33.992 167.215 33.912C166.671 33.832 166.119 33.728 165.559 33.6C164.999 33.456 164.487 33.248 164.023 32.976C163.559 32.704 163.183 32.336 162.895 31.872C162.623 31.408 162.487 30.808 162.487 30.072C162.487 29.256 162.719 28.536 163.183 27.912C163.663 27.288 164.351 26.8 165.247 26.448C166.143 26.08 167.215 25.896 168.463 25.896C169.343 25.896 170.239 25.992 171.151 26.184C172.063 26.376 172.823 26.656 173.431 27.024L172.183 29.688C171.559 29.32 170.927 29.072 170.287 28.944C169.663 28.8 169.055 28.728 168.463 28.728C167.631 28.728 167.023 28.84 166.639 29.064C166.255 29.288 166.063 29.576 166.063 29.928C166.063 30.248 166.199 30.488 166.471 30.648C166.759 30.808 167.135 30.936 167.599 31.032C168.063 31.128 168.567 31.216 169.111 31.296C169.671 31.36 170.231 31.464 170.791 31.608C171.351 31.752 171.855 31.96 172.303 32.232C172.767 32.488 173.143 32.848 173.431 33.312C173.719 33.76 173.863 34.352 173.863 35.088C173.863 35.888 173.623 36.6 173.143 37.224C172.663 37.832 171.967 38.312 171.055 38.664C170.159 39.016 169.063 39.192 167.767 39.192ZM189.378 39.288C188.002 39.288 186.77 38.952 185.682 38.28C184.594 37.592 183.738 36.6 183.114 35.304C182.49 34.008 182.178 32.44 182.178 30.6C182.178 28.76 182.49 27.192 183.114 25.896C183.738 24.6 184.594 23.616 185.682 22.944C186.77 22.256 188.002 21.912 189.378 21.912C190.77 21.912 192.002 22.256 193.074 22.944C194.162 23.616 195.018 24.6 195.642 25.896C196.266 27.192 196.578 28.76 196.578 30.6C196.578 32.44 196.266 34.008 195.642 35.304C195.018 36.6 194.162 37.592 193.074 38.28C192.002 38.952 190.77 39.288 189.378 39.288ZM189.378 36C190.034 36 190.602 35.816 191.082 35.448C191.578 35.08 191.962 34.496 192.234 33.696C192.522 32.896 192.666 31.864 192.666 30.6C192.666 29.336 192.522 28.304 192.234 27.504C191.962 26.704 191.578 26.12 191.082 25.752C190.602 25.384 190.034 25.2 189.378 25.2C188.738 25.2 188.17 25.384 187.674 25.752C187.194 26.12 186.81 26.704 186.522 27.504C186.25 28.304 186.114 29.336 186.114 30.6C186.114 31.864 186.25 32.896 186.522 33.696C186.81 34.496 187.194 35.08 187.674 35.448C188.17 35.816 188.738 36 189.378 36ZM197.393 39L203.177 31.416L203.105 33.48L197.561 26.088H201.761L205.265 30.912L203.681 30.96L207.305 26.088H211.289L205.721 33.408V31.392L211.481 39H207.233L203.561 33.864L205.121 34.08L201.473 39H197.393ZM221.274 39.288C219.978 39.288 218.77 39.08 217.65 38.664C216.546 38.232 215.586 37.624 214.77 36.84C213.954 36.056 213.314 35.136 212.85 34.08C212.402 33.024 212.178 31.864 212.178 30.6C212.178 29.336 212.402 28.176 212.85 27.12C213.314 26.064 213.954 25.144 214.77 24.36C215.602 23.576 216.57 22.976 217.674 22.56C218.778 22.128 219.986 21.912 221.298 21.912C222.754 21.912 224.066 22.168 225.234 22.68C226.418 23.176 227.41 23.912 228.21 24.888L225.714 27.192C225.138 26.536 224.498 26.048 223.794 25.728C223.09 25.392 222.322 25.224 221.49 25.224C220.706 25.224 219.986 25.352 219.33 25.608C218.674 25.864 218.106 26.232 217.626 26.712C217.146 27.192 216.77 27.76 216.498 28.416C216.242 29.072 216.114 29.8 216.114 30.6C216.114 31.4 216.242 32.128 216.498 32.784C216.77 33.44 217.146 34.008 217.626 34.488C218.106 34.968 218.674 35.336 219.33 35.592C219.986 35.848 220.706 35.976 221.49 35.976C222.322 35.976 223.09 35.816 223.794 35.496C224.498 35.16 225.138 34.656 225.714 33.984L228.21 36.288C227.41 37.264 226.418 38.008 225.234 38.52C224.066 39.032 222.746 39.288 221.274 39.288Z"/>
</mask>
<path d="M83.592 29.76V27.76H81.592V29.76H83.592ZM91.656 29.76H93.656V27.76H91.656V29.76ZM91.656 32.88V34.88H93.656V32.88H91.656ZM83.592 32.88H81.592V34.88H83.592V32.88ZM83.88 39V41H85.88V39H83.88ZM79.992 39H77.992V41H79.992V39ZM79.992 22.2V20.2H77.992V22.2H79.992ZM92.688 22.2H94.688V20.2H92.688V22.2ZM92.688 25.32V27.32H94.688V25.32H92.688ZM83.88 25.32V23.32H81.88V25.32H83.88ZM83.592 31.76H91.656V27.76H83.592V31.76ZM89.656 29.76V32.88H93.656V29.76H89.656ZM91.656 30.88H83.592V34.88H91.656V30.88ZM85.592 32.88V29.76H81.592V32.88H85.592ZM83.88 37H79.992V41H83.88V37ZM81.992 39V22.2H77.992V39H81.992ZM79.992 24.2H92.688V20.2H79.992V24.2ZM90.688 22.2V25.32H94.688V22.2H90.688ZM92.688 23.32H83.88V27.32H92.688V23.32ZM81.88 25.32V39H85.88V25.32H81.88ZM97.3194 38.568L96.425 40.3569L96.4318 40.3602L96.4386 40.3636L97.3194 38.568ZM95.3754 36.672L93.6134 37.6183L93.6172 37.6252L93.6209 37.632L95.3754 36.672ZM94.6794 26.088V24.088H92.6794V26.088H94.6794ZM98.4234 26.088H100.423V24.088H98.4234V26.088ZM99.0954 35.208L97.5903 36.525L97.6122 36.55L97.6349 36.5743L99.0954 35.208ZM102.575 35.592L103.52 37.355L103.544 37.3421L103.568 37.3285L102.575 35.592ZM103.631 34.44L105.42 35.3344L105.426 35.3235L105.431 35.3125L103.631 34.44ZM104.015 26.088V24.088H102.015V26.088H104.015ZM107.759 26.088H109.759V24.088H107.759V26.088ZM107.759 39V41H109.759V39H107.759ZM104.207 39H102.207V41H104.207V39ZM104.207 35.448L105.901 34.3845L102.207 28.5018V35.448H104.207ZM104.855 36.48L106.657 37.3486L107.137 36.3527L106.549 35.4165L104.855 36.48ZM102.935 38.52L103.884 40.281L103.895 40.2745L102.935 38.52ZM100.199 37.192C99.3914 37.192 98.7392 37.0368 98.2003 36.7724L96.4386 40.3636C97.5957 40.9312 98.8635 41.192 100.199 41.192V37.192ZM98.2139 36.7791C97.7612 36.5528 97.4065 36.2174 97.13 35.712L93.6209 37.632C94.2724 38.8226 95.2137 39.7512 96.425 40.3569L98.2139 36.7791ZM97.1374 35.7257C96.8752 35.2374 96.6794 34.4936 96.6794 33.384H92.6794C92.6794 34.9304 92.9477 36.3786 93.6134 37.6183L97.1374 35.7257ZM96.6794 33.384V26.088H92.6794V33.384H96.6794ZM94.6794 28.088H98.4234V24.088H94.6794V28.088ZM96.4234 26.088V32.832H100.423V26.088H96.4234ZM96.4234 32.832C96.4234 34.1235 96.6838 35.489 97.5903 36.525L100.601 33.891C100.611 33.903 100.423 33.6845 100.423 32.832H96.4234ZM97.6349 36.5743C98.5597 37.5629 99.7877 37.952 101.039 37.952V33.952C100.627 33.952 100.559 33.8451 100.556 33.8417L97.6349 36.5743ZM101.039 37.952C101.901 37.952 102.745 37.7703 103.52 37.355L101.631 33.829C101.51 33.8937 101.33 33.952 101.039 33.952V37.952ZM103.568 37.3285C104.396 36.8554 105.008 36.1594 105.42 35.3344L101.843 33.5456C101.743 33.7446 101.651 33.8166 101.583 33.8555L103.568 37.3285ZM105.431 35.3125C105.856 34.4371 106.015 33.4614 106.015 32.472H102.015C102.015 33.0506 101.919 33.3869 101.832 33.5675L105.431 35.3125ZM106.015 32.472V26.088H102.015V32.472H106.015ZM104.015 28.088H107.759V24.088H104.015V28.088ZM105.759 26.088V39H109.759V26.088H105.759ZM107.759 37H104.207V41H107.759V37ZM106.207 39V35.448H102.207V39H106.207ZM102.514 36.5115L103.162 37.5435L106.549 35.4165L105.901 34.3845L102.514 36.5115ZM103.054 35.6114C102.797 36.1432 102.446 36.5079 101.975 36.7655L103.895 40.2745C105.121 39.6041 106.049 38.6088 106.657 37.3486L103.054 35.6114ZM101.987 36.7591C101.461 37.0423 100.878 37.192 100.199 37.192V41.192C101.505 41.192 102.746 40.8937 103.884 40.2809L101.987 36.7591ZM112.956 38.04L111.598 39.5085L111.606 39.5155L111.613 39.5224L112.956 38.04ZM111.684 23.232V21.232H109.684V23.232H111.684ZM115.428 23.232H117.428V21.232H115.428V23.232ZM115.86 35.784L114.408 37.1595L114.427 37.1791L114.446 37.1982L115.86 35.784ZM118.548 35.736L120.416 35.0226L119.458 32.5127L117.329 34.1508L118.548 35.736ZM119.556 38.376L120.712 40.008L121.978 39.1116L121.424 37.6626L119.556 38.376ZM118.164 39L118.635 40.9437L118.656 40.9388L118.676 40.9334L118.164 39ZM109.692 29.256H107.692V31.256H109.692V29.256ZM109.692 26.376V24.376H107.692V26.376H109.692ZM118.644 26.376H120.644V24.376H118.644V26.376ZM118.644 29.256V31.256H120.644V29.256H118.644ZM116.508 37.192C115.318 37.192 114.672 36.8956 114.299 36.5576L111.613 39.5224C112.936 40.7204 114.658 41.192 116.508 41.192V37.192ZM114.314 36.5715C113.998 36.2795 113.684 35.731 113.684 34.56H109.684C109.684 36.461 110.218 38.2325 111.598 39.5085L114.314 36.5715ZM113.684 34.56V23.232H109.684V34.56H113.684ZM111.684 25.232H115.428V21.232H111.684V25.232ZM113.428 23.232V34.512H117.428V23.232H113.428ZM113.428 34.512C113.428 35.4095 113.673 36.3831 114.408 37.1595L117.312 34.4085C117.343 34.4416 117.37 34.4774 117.391 34.5129C117.412 34.548 117.424 34.5769 117.43 34.5948C117.441 34.629 117.428 34.6106 117.428 34.512H113.428ZM114.446 37.1982C115.188 37.9402 116.133 38.216 117.036 38.216V34.216C116.98 34.216 116.998 34.2079 117.06 34.2307C117.129 34.2561 117.208 34.3034 117.274 34.3698L114.446 37.1982ZM117.036 38.216C118.01 38.216 118.958 37.9442 119.767 37.3212L117.329 34.1508C117.306 34.1678 117.246 34.216 117.036 34.216V38.216ZM116.68 36.4494L117.688 39.0894L121.424 37.6626L120.416 35.0226L116.68 36.4494ZM118.4 36.744C118.245 36.8537 118.009 36.9721 117.652 37.0666L118.676 40.9334C119.407 40.7399 120.099 40.4423 120.712 40.008L118.4 36.744ZM117.693 37.0563C117.328 37.1447 116.935 37.192 116.508 37.192V41.192C117.233 41.192 117.944 41.1113 118.635 40.9437L117.693 37.0563ZM111.692 29.256V26.376H107.692V29.256H111.692ZM109.692 28.376H118.644V24.376H109.692V28.376ZM116.644 26.376V29.256H120.644V26.376H116.644ZM118.644 27.256H109.692V31.256H118.644V27.256ZM124.226 38.568L123.331 40.3569L123.338 40.3602L123.345 40.3636L124.226 38.568ZM122.282 36.672L120.52 37.6183L120.523 37.6252L120.527 37.632L122.282 36.672ZM121.586 26.088V24.088H119.586V26.088H121.586ZM125.33 26.088H127.33V24.088H125.33V26.088ZM126.002 35.208L124.497 36.525L124.518 36.55L124.541 36.5743L126.002 35.208ZM129.482 35.592L130.426 37.355L130.45 37.3421L130.474 37.3285L129.482 35.592ZM130.538 34.44L132.327 35.3344L132.332 35.3235L132.337 35.3125L130.538 34.44ZM130.922 26.088V24.088H128.922V26.088H130.922ZM134.666 26.088H136.666V24.088H134.666V26.088ZM134.666 39V41H136.666V39H134.666ZM131.114 39H129.114V41H131.114V39ZM131.114 35.448L132.807 34.3845L129.114 28.5018V35.448H131.114ZM131.762 36.48L133.563 37.3486L134.043 36.3527L133.455 35.4165L131.762 36.48ZM129.842 38.52L130.79 40.281L130.802 40.2745L129.842 38.52ZM127.106 37.192C126.298 37.192 125.645 37.0368 125.107 36.7724L123.345 40.3636C124.502 40.9312 125.77 41.192 127.106 41.192V37.192ZM125.12 36.7791C124.667 36.5528 124.313 36.2174 124.036 35.712L120.527 37.632C121.179 38.8226 122.12 39.7512 123.331 40.3569L125.12 36.7791ZM124.044 35.7257C123.781 35.2374 123.586 34.4936 123.586 33.384H119.586C119.586 34.9304 119.854 36.3786 120.52 37.6183L124.044 35.7257ZM123.586 33.384V26.088H119.586V33.384H123.586ZM121.586 28.088H125.33V24.088H121.586V28.088ZM123.33 26.088V32.832H127.33V26.088H123.33ZM123.33 32.832C123.33 34.1235 123.59 35.489 124.497 36.525L127.507 33.891C127.517 33.903 127.33 33.6845 127.33 32.832H123.33ZM124.541 36.5743C125.466 37.5629 126.694 37.952 127.946 37.952V33.952C127.533 33.952 127.465 33.8451 127.462 33.8417L124.541 36.5743ZM127.946 37.952C128.807 37.952 129.651 37.7703 130.426 37.355L128.537 33.829C128.417 33.8937 128.237 33.952 127.946 33.952V37.952ZM130.474 37.3285C131.302 36.8554 131.914 36.1594 132.327 35.3344L128.749 33.5456C128.649 33.7446 128.558 33.8166 128.489 33.8555L130.474 37.3285ZM132.337 35.3125C132.762 34.4371 132.922 33.4614 132.922 32.472H128.922C128.922 33.0506 128.826 33.3869 128.738 33.5675L132.337 35.3125ZM132.922 32.472V26.088H128.922V32.472H132.922ZM130.922 28.088H134.666V24.088H130.922V28.088ZM132.666 26.088V39H136.666V26.088H132.666ZM134.666 37H131.114V41H134.666V37ZM133.114 39V35.448H129.114V39H133.114ZM129.42 36.5115L130.068 37.5435L133.455 35.4165L132.807 34.3845L129.42 36.5115ZM129.96 35.6114C129.704 36.1432 129.352 36.5079 128.882 36.7655L130.802 40.2745C132.027 39.6041 132.956 38.6088 133.563 37.3486L129.96 35.6114ZM128.893 36.7591C128.368 37.0423 127.784 37.192 127.106 37.192V41.192C128.412 41.192 129.652 40.8937 130.79 40.2809L128.893 36.7591ZM138.134 39H136.134V41H138.134V39ZM138.134 26.088V24.088H136.134V26.088H138.134ZM141.71 26.088H143.71V24.088H141.71V26.088ZM141.71 29.736L139.905 30.5975L143.71 29.736H141.71ZM141.206 28.68L139.363 27.9039L139.015 28.7313L139.401 29.5415L141.206 28.68ZM143.054 26.616L144.014 28.3705L144.027 28.3636L144.039 28.3565L143.054 26.616ZM146.15 25.896H148.15V23.896H146.15V25.896ZM146.15 29.352L145.951 31.3421L148.15 31.562V29.352H146.15ZM145.718 29.328L145.47 31.3126L145.594 31.328H145.718V29.328ZM142.814 30.192L144.171 31.6616L144.172 31.6602L142.814 30.192ZM141.878 39V41H143.878V39H141.878ZM140.134 39V26.088H136.134V39H140.134ZM138.134 28.088H141.71V24.088H138.134V28.088ZM139.71 26.088V29.736H143.71V26.088H139.71ZM143.515 28.8745L143.011 27.8185L139.401 29.5415L139.905 30.5975L143.515 28.8745ZM143.05 29.4561C143.263 28.95 143.573 28.6121 144.014 28.3705L142.094 24.8615C140.84 25.5479 139.918 26.586 139.363 27.9039L143.05 29.4561ZM144.039 28.3565C144.521 28.0839 145.195 27.896 146.15 27.896V23.896C144.673 23.896 143.283 24.1881 142.069 24.8755L144.039 28.3565ZM144.15 25.896V29.352H148.15V25.896H144.15ZM146.349 27.3619C146.139 27.3409 145.927 27.328 145.718 27.328V31.328C145.766 31.328 145.841 31.3311 145.951 31.3421L146.349 27.3619ZM145.966 27.3434C145.747 27.3161 145.528 27.304 145.31 27.304V31.304C145.381 31.304 145.433 31.3079 145.47 31.3126L145.966 27.3434ZM145.31 27.304C143.876 27.304 142.529 27.7313 141.456 28.7238L144.172 31.6602C144.379 31.4687 144.696 31.304 145.31 31.304V27.304ZM141.458 28.7224C140.268 29.8209 139.878 31.3689 139.878 32.904H143.878C143.878 31.9751 144.113 31.7151 144.171 31.6616L141.458 28.7224ZM139.878 32.904V39H143.878V32.904H139.878ZM141.878 37H138.134V41H141.878V37ZM150.803 38.328L149.878 40.1012L149.888 40.1066L150.803 38.328ZM148.235 35.976L146.522 37.009L146.526 37.0151L146.529 37.0211L148.235 35.976ZM148.211 29.112L146.498 28.079L146.493 28.0871L148.211 29.112ZM150.683 26.76L151.631 28.5209L151.641 28.5153L151.652 28.5096L150.683 26.76ZM157.619 26.712L156.669 28.472L156.685 28.481L156.702 28.4896L157.619 26.712ZM160.043 29.016L158.318 30.0289L158.325 30.0409L160.043 29.016ZM160.907 33.096L162.898 33.2771L162.899 33.2696L162.9 33.2621L160.907 33.096ZM160.859 33.6V35.6H162.669L162.849 33.799L160.859 33.6ZM150.371 33.6H148.371V35.6H150.371V33.6ZM150.371 31.416V29.416H148.371V31.416H150.371ZM158.891 31.416L159.711 33.2398L158.891 29.416V31.416ZM157.451 32.064H155.451V35.1572L158.271 33.8878L157.451 32.064ZM157.043 30.312L155.289 31.2737L155.289 31.2737L157.043 30.312ZM155.915 29.16L154.886 30.875L154.907 30.8878L154.929 30.9L155.915 29.16ZM152.531 29.16L153.517 30.9L153.526 30.8949L153.535 30.8896L152.531 29.16ZM151.403 30.336L153.156 31.2977L153.163 31.286L153.169 31.2743L151.403 30.336ZM151.451 34.56L149.705 35.5356L149.722 35.5664L149.74 35.5966L151.451 34.56ZM152.771 35.784L151.856 37.5626L151.886 37.578L151.917 37.5925L152.771 35.784ZM156.587 35.88L155.854 34.0192L155.844 34.0231L155.834 34.0271L156.587 35.88ZM158.027 34.944L159.497 33.5881L158.111 32.0858L156.639 33.5034L158.027 34.944ZM160.019 37.104L161.519 38.4261L162.711 37.0734L161.489 35.7481L160.019 37.104ZM157.787 38.664L158.518 40.5255L158.532 40.5199L158.547 40.514L157.787 38.664ZM154.691 37.192C153.483 37.192 152.51 36.9572 151.717 36.5494L149.888 40.1066C151.335 40.8508 152.954 41.192 154.691 41.192V37.192ZM151.728 36.5548C150.922 36.1342 150.345 35.5922 149.94 34.9309L146.529 37.0211C147.34 38.3437 148.476 39.3698 149.878 40.1012L151.728 36.5548ZM149.947 34.943C149.544 34.2738 149.323 33.4928 149.323 32.544H145.323C145.323 34.1552 145.71 35.6622 146.522 37.009L149.947 34.943ZM149.323 32.544C149.323 31.5638 149.543 30.7825 149.928 30.1369L146.493 28.0871C145.695 29.4255 145.323 30.9322 145.323 32.544H149.323ZM149.923 30.145C150.346 29.4448 150.905 28.9117 151.631 28.5209L149.734 24.9991C148.38 25.7283 147.292 26.7632 146.498 28.079L149.923 30.145ZM151.652 28.5096C152.365 28.1144 153.202 27.896 154.211 27.896V23.896C152.596 23.896 151.08 24.2536 149.714 25.0104L151.652 28.5096ZM154.211 27.896C155.178 27.896 155.982 28.1014 156.669 28.472L158.569 24.952C157.239 24.2346 155.771 23.896 154.211 23.896V27.896ZM156.702 28.4896C157.385 28.8416 157.915 29.342 158.318 30.0288L161.767 28.0032C160.987 26.674 159.901 25.6384 158.535 24.9344L156.702 28.4896ZM158.325 30.0409C158.698 30.665 158.931 31.4867 158.931 32.592H162.931C162.931 30.9133 162.572 29.351 161.76 27.9911L158.325 30.0409ZM158.931 32.592C158.931 32.6657 158.926 32.776 158.914 32.9299L162.9 33.2621C162.919 33.032 162.931 32.8063 162.931 32.592H158.931ZM158.915 32.9149C158.899 33.0855 158.884 33.2475 158.869 33.401L162.849 33.799C162.865 33.6325 162.882 33.4585 162.898 33.2771L158.915 32.9149ZM160.859 31.6H150.371V35.6H160.859V31.6ZM152.371 33.6V31.416H148.371V33.6H152.371ZM150.371 33.416H158.891V29.416H150.371V33.416ZM158.07 29.5922L156.63 30.2402L158.271 33.8878L159.711 33.2398L158.07 29.5922ZM159.451 32.064C159.451 31.119 159.258 30.1919 158.796 29.3503L155.289 31.2737C155.372 31.4241 155.451 31.665 155.451 32.064H159.451ZM158.796 29.3503C158.35 28.5373 157.712 27.8799 156.901 27.42L154.929 30.9C155.077 30.9841 155.191 31.0947 155.289 31.2737L158.796 29.3503ZM156.944 27.445C156.11 26.945 155.184 26.728 154.235 26.728V30.728C154.565 30.728 154.759 30.799 154.886 30.875L156.944 27.445ZM154.235 26.728C153.284 26.728 152.362 26.9454 151.526 27.4304L153.535 30.8896C153.692 30.7986 153.906 30.728 154.235 30.728V26.728ZM151.545 27.42C150.716 27.8893 150.077 28.5676 149.636 29.3977L153.169 31.2743C153.272 31.0804 153.385 30.9747 153.517 30.9L151.545 27.42ZM149.649 29.3743C149.184 30.2225 148.995 31.16 148.995 32.112H152.995C152.995 31.688 153.077 31.4415 153.156 31.2977L149.649 29.3743ZM148.995 32.112V32.688H152.995V32.112H148.995ZM148.995 32.688C148.995 33.6885 149.214 34.6565 149.705 35.5356L153.197 33.5844C153.08 33.3755 152.995 33.0955 152.995 32.688H148.995ZM149.74 35.5966C150.256 36.4473 150.974 37.1091 151.856 37.5626L153.685 34.0054C153.447 33.8829 153.286 33.7287 153.161 33.5234L149.74 35.5966ZM151.917 37.5925C152.809 38.0139 153.783 38.192 154.787 38.192V34.192C154.254 34.192 153.884 34.0981 153.625 33.9755L151.917 37.5925ZM154.787 38.192C155.672 38.192 156.538 38.0587 157.339 37.7329L155.834 34.0271C155.612 34.1173 155.278 34.192 154.787 34.192V38.192ZM157.32 37.7408C158.105 37.4315 158.804 36.9717 159.414 36.3846L156.639 33.5034C156.385 33.7483 156.125 33.9125 155.854 34.0192L157.32 37.7408ZM156.556 36.2999L158.548 38.4599L161.489 35.7481L159.497 33.5881L156.556 36.2999ZM158.518 35.7819C158.145 36.2049 157.662 36.553 157.027 36.814L158.547 40.514C159.703 40.039 160.708 39.3471 161.519 38.4261L158.518 35.7819ZM157.055 36.8025C156.436 37.0457 155.66 37.192 154.691 37.192V41.192C156.057 41.192 157.345 40.9863 158.518 40.5255L157.055 36.8025ZM164.575 38.808L164.054 40.7389L164.072 40.7438L164.09 40.7483L164.575 38.808ZM162.175 37.8L160.361 36.9578L159.644 38.5032L161.056 39.4572L162.175 37.8ZM163.423 35.112L164.479 33.4134L162.561 32.2208L161.609 34.2698L163.423 35.112ZM165.511 36.024L164.937 37.9397L164.959 37.9464L164.982 37.9527L165.511 36.024ZM169.735 36.048L168.751 34.3069L168.734 34.3164L168.718 34.3261L169.735 36.048ZM169.855 34.512L168.841 36.2359L168.9 36.2704L168.961 36.3009L169.855 34.512ZM168.751 34.152L168.411 36.1229L168.411 36.1229L168.751 34.152ZM167.215 33.912L166.924 35.8907L166.932 35.8919L167.215 33.912ZM165.559 33.6L165.061 35.537L165.087 35.5437L165.114 35.5497L165.559 33.6ZM164.023 32.976L165.035 31.2506L165.035 31.2506L164.023 32.976ZM162.895 31.872L161.17 32.8834L161.183 32.9052L161.196 32.9267L162.895 31.872ZM163.183 27.912L161.598 26.6926L161.588 26.7055L161.578 26.7186L163.183 27.912ZM165.247 26.448L165.979 28.3095L165.993 28.3039L166.007 28.298L165.247 26.448ZM171.151 26.184L171.563 24.2269L171.563 24.2269L171.151 26.184ZM173.431 27.024L175.242 27.8724L176.005 26.2441L174.467 25.313L173.431 27.024ZM172.183 29.688L171.167 31.4107L173.062 32.5278L173.994 30.5364L172.183 29.688ZM170.287 28.944L169.838 30.8928L169.866 30.8994L169.895 30.9052L170.287 28.944ZM166.639 29.064L165.632 27.3364L165.632 27.3364L166.639 29.064ZM166.471 30.648L165.457 32.3719L165.478 32.3844L165.5 32.3963L166.471 30.648ZM169.111 31.296L168.82 33.2747L168.852 33.2794L168.884 33.2831L169.111 31.296ZM170.791 31.608L171.289 29.671L171.289 29.671L170.791 31.608ZM172.303 32.232L171.265 33.9416L171.301 33.9631L171.337 33.9832L172.303 32.232ZM173.431 33.312L171.732 34.3667L171.74 34.3802L171.749 34.3935L173.431 33.312ZM173.143 37.224L174.713 38.4633L174.721 38.4534L174.729 38.4434L173.143 37.224ZM171.055 38.664L170.335 36.7981L170.324 36.8025L171.055 38.664ZM167.767 37.192C166.819 37.192 165.919 37.0823 165.06 36.8677L164.09 40.7483C165.28 41.0457 166.507 41.192 167.767 41.192V37.192ZM165.096 36.8771C164.212 36.6385 163.641 36.3763 163.295 36.1428L161.056 39.4572C161.894 40.0237 162.922 40.4335 164.054 40.7389L165.096 36.8771ZM163.989 38.6422L165.237 35.9542L161.609 34.2698L160.361 36.9578L163.989 38.6422ZM162.367 36.8106C163.136 37.2882 164 37.6586 164.937 37.9397L166.086 34.1083C165.423 33.9094 164.895 33.6718 164.479 33.4134L162.367 36.8106ZM164.982 37.9527C165.957 38.2203 166.935 38.36 167.911 38.36V34.36C167.32 34.36 166.698 34.2757 166.041 34.0953L164.982 37.9527ZM167.911 38.36C168.816 38.36 169.902 38.2724 170.753 37.7699L168.718 34.3261C168.83 34.26 168.852 34.2809 168.678 34.3106C168.52 34.3377 168.271 34.36 167.911 34.36V38.36ZM170.719 37.7891C171.603 37.2897 172.287 36.3933 172.287 35.184H168.287C168.287 35.017 168.335 34.8016 168.464 34.5992C168.585 34.41 168.717 34.3262 168.751 34.3069L170.719 37.7891ZM172.287 35.184C172.287 34.7042 172.169 34.185 171.862 33.7065C171.558 33.2346 171.148 32.9222 170.75 32.7231L168.961 36.3009C168.851 36.2458 168.656 36.1174 168.497 35.8695C168.333 35.615 168.287 35.3598 168.287 35.184H172.287ZM170.869 32.7881C170.314 32.4612 169.687 32.2839 169.091 32.1811L168.411 36.1229C168.568 36.1499 168.68 36.1789 168.755 36.2035C168.832 36.2283 168.854 36.2434 168.841 36.2359L170.869 32.7881ZM169.091 32.1811C168.605 32.0972 168.074 32.0143 167.498 31.9321L166.932 35.8919C167.477 35.9697 167.97 36.0468 168.411 36.1229L169.091 32.1811ZM167.506 31.9333C167.016 31.8612 166.516 31.7671 166.005 31.6503L165.114 35.5497C165.723 35.6889 166.326 35.8028 166.924 35.8907L167.506 31.9333ZM166.057 31.663C165.664 31.5619 165.327 31.4218 165.035 31.2506L163.012 34.7014C163.648 35.0742 164.335 35.3501 165.061 35.537L166.057 31.663ZM165.035 31.2506C164.856 31.1456 164.714 31.0096 164.595 30.8173L161.196 32.9267C161.653 33.6624 162.263 34.2624 163.012 34.7014L165.035 31.2506ZM164.621 30.8606C164.583 30.7961 164.487 30.5781 164.487 30.072H160.487C160.487 31.0379 160.664 32.0199 161.17 32.8834L164.621 30.8606ZM164.487 30.072C164.487 29.6633 164.594 29.3666 164.788 29.1054L161.578 26.7186C160.845 27.7054 160.487 28.8487 160.487 30.072H164.487ZM164.769 29.1314C164.983 28.8528 165.345 28.5584 165.979 28.3095L164.516 24.5865C163.358 25.0416 162.344 25.7232 161.598 26.6926L164.769 29.1314ZM166.007 28.298C166.603 28.0531 167.404 27.896 168.463 27.896V23.896C167.027 23.896 165.683 24.1069 164.487 24.598L166.007 28.298ZM168.463 27.896C169.197 27.896 169.955 27.9759 170.739 28.1411L171.563 24.2269C170.524 24.0081 169.49 23.896 168.463 23.896V27.896ZM170.739 28.1411C171.496 28.3004 172.03 28.5134 172.396 28.735L174.467 25.313C173.617 24.7986 172.631 24.4516 171.563 24.2269L170.739 28.1411ZM171.62 26.1755L170.372 28.8395L173.994 30.5364L175.242 27.8724L171.62 26.1755ZM173.199 27.9653C172.403 27.4958 171.562 27.1594 170.68 26.9828L169.895 30.9052C170.292 30.9846 170.715 31.1442 171.167 31.4107L173.199 27.9653ZM170.737 26.9952C169.977 26.8199 169.218 26.728 168.463 26.728V30.728C168.892 30.728 169.349 30.7801 169.838 30.8928L170.737 26.9952ZM168.463 26.728C167.537 26.728 166.487 26.8374 165.632 27.3364L167.647 30.7916C167.578 30.8318 167.587 30.8082 167.746 30.7789C167.897 30.751 168.13 30.728 168.463 30.728V26.728ZM165.632 27.3364C164.82 27.8097 164.063 28.6718 164.063 29.928H168.063C168.063 30.1397 167.998 30.367 167.871 30.5574C167.815 30.6427 167.758 30.7019 167.716 30.7388C167.675 30.775 167.648 30.7907 167.647 30.7916L165.632 27.3364ZM164.063 29.928C164.063 30.9444 164.564 31.8463 165.457 32.3719L167.485 28.9241C167.608 28.9961 167.777 29.1348 167.905 29.362C168.033 29.5878 168.063 29.7982 168.063 29.928H164.063ZM165.5 32.3963C166.024 32.6873 166.611 32.8698 167.194 32.9905L168.005 29.0735C167.66 29.0022 167.495 28.9287 167.443 28.8997L165.5 32.3963ZM167.194 32.9905C167.701 33.0955 168.244 33.19 168.82 33.2747L169.402 29.3173C168.891 29.242 168.425 29.1605 168.005 29.0735L167.194 32.9905ZM168.884 33.2831C169.351 33.3364 169.82 33.4233 170.293 33.545L171.289 29.671C170.643 29.5047 169.992 29.3836 169.338 29.3089L168.884 33.2831ZM170.293 33.545C170.683 33.6451 171.002 33.7814 171.265 33.9416L173.341 30.5224C172.709 30.1386 172.02 29.8589 171.289 29.671L170.293 33.545ZM171.337 33.9832C171.492 34.0685 171.619 34.1846 171.732 34.3667L175.131 32.2573C174.668 31.5114 174.043 30.9075 173.269 30.4808L171.337 33.9832ZM171.749 34.3935C171.765 34.4178 171.863 34.5943 171.863 35.088H175.863C175.863 34.1097 175.674 33.1022 175.114 32.2305L171.749 34.3935ZM171.863 35.088C171.863 35.4546 171.764 35.7363 171.558 36.0046L174.729 38.4434C175.482 37.4637 175.863 36.3214 175.863 35.088H171.863ZM171.574 35.9847C171.367 36.2468 170.999 36.5418 170.335 36.7982L171.775 40.5298C172.935 40.0822 173.96 39.4172 174.713 38.4633L171.574 35.9847ZM170.324 36.8025C169.726 37.0373 168.894 37.192 167.767 37.192V41.192C169.232 41.192 170.592 40.9947 171.787 40.5255L170.324 36.8025ZM185.682 38.28L184.613 39.9704L184.622 39.976L184.631 39.9816L185.682 38.28ZM183.114 35.304L181.312 36.1716L183.114 35.304ZM183.114 25.896L184.916 26.7636L184.916 26.7636L183.114 25.896ZM185.682 22.944L186.733 24.6456L186.742 24.64L186.751 24.6344L185.682 22.944ZM193.074 22.944L191.994 24.6272L192.008 24.6365L192.023 24.6456L193.074 22.944ZM195.642 25.896L193.84 26.7636L193.84 26.7636L195.642 25.896ZM195.642 35.304L193.84 34.4364L193.84 34.4364L195.642 35.304ZM193.074 38.28L194.136 39.9746L194.143 39.9704L193.074 38.28ZM191.082 35.448L189.89 33.8418L189.878 33.8512L189.865 33.8608L191.082 35.448ZM192.234 33.696L190.352 33.0186L190.346 33.0353L190.341 33.0522L192.234 33.696ZM192.234 27.504L190.341 28.1478L190.346 28.1647L190.352 28.1814L192.234 27.504ZM191.082 25.752L189.865 27.3392L189.878 27.3488L189.89 27.3582L191.082 25.752ZM187.674 25.752L186.482 24.1458L186.47 24.1552L186.457 24.1648L187.674 25.752ZM186.522 27.504L184.64 26.8266L184.634 26.8433L184.629 26.8602L186.522 27.504ZM186.522 33.696L184.629 34.3398L184.634 34.3567L184.64 34.3734L186.522 33.696ZM187.674 35.448L186.457 37.0352L186.47 37.0448L186.482 37.0542L187.674 35.448ZM189.378 37.288C188.344 37.288 187.481 37.0405 186.733 36.5784L184.631 39.9816C186.059 40.8635 187.66 41.288 189.378 41.288V37.288ZM186.751 36.5896C186.016 36.1247 185.397 35.4357 184.916 34.4364L181.312 36.1716C182.079 37.7643 183.172 39.0593 184.613 39.9704L186.751 36.5896ZM184.916 34.4364C184.454 33.4757 184.178 32.2207 184.178 30.6H180.178C180.178 32.6593 180.527 34.5403 181.312 36.1716L184.916 34.4364ZM184.178 30.6C184.178 28.9793 184.454 27.7243 184.916 26.7636L181.312 25.0284C180.527 26.6597 180.178 28.5407 180.178 30.6H184.178ZM184.916 26.7636C185.396 25.7674 186.009 25.0927 186.733 24.6456L184.631 21.2424C183.179 22.1393 182.081 23.4326 181.312 25.0284L184.916 26.7636ZM186.751 24.6344C187.497 24.1627 188.353 23.912 189.378 23.912V19.912C187.651 19.912 186.043 20.3493 184.613 21.2536L186.751 24.6344ZM189.378 23.912C190.424 23.912 191.274 24.1651 191.994 24.6272L194.154 21.2608C192.73 20.3469 191.116 19.912 189.378 19.912V23.912ZM192.023 24.6456C192.747 25.0927 193.361 25.7674 193.84 26.7636L197.444 25.0284C196.676 23.4326 195.577 22.1393 194.125 21.2424L192.023 24.6456ZM193.84 26.7636C194.303 27.7243 194.578 28.9793 194.578 30.6H198.578C198.578 28.5407 198.23 26.6597 197.444 25.0284L193.84 26.7636ZM194.578 30.6C194.578 32.2207 194.303 33.4757 193.84 34.4364L197.444 36.1716C198.23 34.5403 198.578 32.6593 198.578 30.6H194.578ZM193.84 34.4364C193.359 35.4357 192.74 36.1247 192.005 36.5896L194.143 39.9704C195.584 39.0593 196.677 37.7643 197.444 36.1716L193.84 34.4364ZM192.012 36.5854C191.29 37.0381 190.433 37.288 189.378 37.288V41.288C191.107 41.288 192.715 40.8659 194.136 39.9746L192.012 36.5854ZM189.378 38C190.435 38 191.44 37.694 192.299 37.0352L189.865 33.8608C189.765 33.938 189.634 34 189.378 34V38ZM192.274 37.0542C193.196 36.3698 193.772 35.3864 194.128 34.3398L190.341 33.0522C190.152 33.6056 189.96 33.7902 189.89 33.8418L192.274 37.0542ZM194.116 34.3734C194.51 33.2777 194.666 31.9935 194.666 30.6H190.666C190.666 31.7345 190.534 32.5143 190.352 33.0186L194.116 34.3734ZM194.666 30.6C194.666 29.2065 194.51 27.9223 194.116 26.8266L190.352 28.1814C190.534 28.6857 190.666 29.4655 190.666 30.6H194.666ZM194.128 26.8602C193.772 25.8136 193.196 24.8302 192.274 24.1458L189.89 27.3582C189.96 27.4098 190.152 27.5944 190.341 28.1478L194.128 26.8602ZM192.299 24.1648C191.44 23.506 190.435 23.2 189.378 23.2V27.2C189.634 27.2 189.765 27.262 189.865 27.3392L192.299 24.1648ZM189.378 23.2C188.326 23.2 187.336 23.5123 186.482 24.1458L188.866 27.3582C189.004 27.2557 189.151 27.2 189.378 27.2V23.2ZM186.457 24.1648C185.573 24.8426 185.008 25.8061 184.64 26.8266L188.404 28.1814C188.613 27.6019 188.815 27.3974 188.891 27.3392L186.457 24.1648ZM184.629 26.8602C184.26 27.9432 184.114 29.2146 184.114 30.6H188.114C188.114 29.4574 188.24 28.6648 188.416 28.1478L184.629 26.8602ZM184.114 30.6C184.114 31.9854 184.26 33.2568 184.629 34.3398L188.416 33.0522C188.24 32.5352 188.114 31.7426 188.114 30.6H184.114ZM184.64 34.3734C185.008 35.3939 185.573 36.3574 186.457 37.0352L188.891 33.8608C188.815 33.8026 188.613 33.5981 188.404 33.0186L184.64 34.3734ZM186.482 37.0542C187.336 37.6877 188.326 38 189.378 38V34C189.151 34 189.004 33.9443 188.866 33.8418L186.482 37.0542ZM197.393 39L195.803 37.7872L193.352 41H197.393V39ZM203.177 31.416L205.176 31.4857L205.395 25.2101L201.587 30.2032L203.177 31.416ZM203.105 33.48L201.505 34.68L204.906 39.2149L205.104 33.5497L203.105 33.48ZM197.561 26.088V24.088H193.561L195.961 27.288L197.561 26.088ZM201.761 26.088L203.379 24.9126L202.78 24.088H201.761V26.088ZM205.265 30.912L205.325 32.9111L209.106 32.7965L206.883 29.7366L205.265 30.912ZM203.681 30.96L202.076 29.7663L199.608 33.0843L203.741 32.9591L203.681 30.96ZM207.305 26.088V24.088H206.3L205.7 24.8943L207.305 26.088ZM211.289 26.088L212.881 27.2988L215.323 24.088H211.289V26.088ZM205.721 33.408H203.721V39.3408L207.313 34.6188L205.721 33.408ZM205.721 31.392L207.315 30.1848L203.721 25.437V31.392H205.721ZM211.481 39V41H215.504L213.075 37.7928L211.481 39ZM207.233 39L205.606 40.1632L206.204 41H207.233V39ZM203.561 33.864L203.835 31.8829L199.23 31.2453L201.934 35.0272L203.561 33.864ZM205.121 34.08L206.727 35.2712L208.737 32.5616L205.395 32.0989L205.121 34.08ZM201.473 39V41H202.48L203.079 40.1912L201.473 39ZM198.983 40.2128L204.767 32.6288L201.587 30.2032L195.803 37.7872L198.983 40.2128ZM201.178 31.3463L201.106 33.4103L205.104 33.5497L205.176 31.4857L201.178 31.3463ZM204.705 32.28L199.161 24.888L195.961 27.288L201.505 34.68L204.705 32.28ZM197.561 28.088H201.761V24.088H197.561V28.088ZM200.143 27.2634L203.647 32.0874L206.883 29.7366L203.379 24.9126L200.143 27.2634ZM205.204 28.9129L203.62 28.9609L203.741 32.9591L205.325 32.9111L205.204 28.9129ZM205.286 32.1537L208.91 27.2817L205.7 24.8943L202.076 29.7663L205.286 32.1537ZM207.305 28.088H211.289V24.088H207.305V28.088ZM209.697 24.8772L204.129 32.1972L207.313 34.6188L212.881 27.2988L209.697 24.8772ZM207.721 33.408V31.392H203.721V33.408H207.721ZM204.126 32.5992L209.886 40.2072L213.075 37.7928L207.315 30.1848L204.126 32.5992ZM211.481 37H207.233V41H211.481V37ZM208.86 37.8368L205.188 32.7008L201.934 35.0272L205.606 40.1632L208.86 37.8368ZM203.287 35.8451L204.847 36.0611L205.395 32.0989L203.835 31.8829L203.287 35.8451ZM203.514 32.8888L199.866 37.8088L203.079 40.1912L206.727 35.2712L203.514 32.8888ZM201.473 37H197.393V41H201.473V37ZM217.65 38.664L216.921 40.5265L216.938 40.5328L216.954 40.5389L217.65 38.664ZM214.77 36.84L213.385 38.2822L213.385 38.2822L214.77 36.84ZM212.85 34.08L211.009 34.8611L211.014 34.8729L211.019 34.8845L212.85 34.08ZM212.85 27.12L211.019 26.3155L211.014 26.3271L211.009 26.3389L212.85 27.12ZM214.77 24.36L213.399 22.9044L213.392 22.9111L213.385 22.9178L214.77 24.36ZM217.674 22.56L218.379 24.4315L218.391 24.4271L218.403 24.4225L217.674 22.56ZM225.234 22.68L224.431 24.5117L224.446 24.5183L224.461 24.5247L225.234 22.68ZM228.21 24.888L229.567 26.3576L230.952 25.0786L229.757 23.6201L228.21 24.888ZM225.714 27.192L224.211 28.5116L225.564 30.0523L227.071 28.6616L225.714 27.192ZM223.794 25.728L222.933 27.533L222.95 27.541L222.967 27.5487L223.794 25.728ZM217.626 26.712L219.04 28.1262L219.04 28.1262L217.626 26.712ZM216.498 28.416L214.651 27.65L214.643 27.6694L214.635 27.6889L216.498 28.416ZM216.498 32.784L214.635 33.5111L214.643 33.5306L214.651 33.55L216.498 32.784ZM217.626 34.488L216.212 35.9022L216.212 35.9022L217.626 34.488ZM223.794 35.496L224.622 37.3167L224.639 37.309L224.656 37.301L223.794 35.496ZM225.714 33.984L227.071 32.5144L225.546 31.107L224.196 32.6824L225.714 33.984ZM228.21 36.288L229.757 37.5559L230.952 36.0974L229.567 34.8184L228.21 36.288ZM225.234 38.52L224.44 36.6843L224.431 36.6883L225.234 38.52ZM221.274 37.288C220.196 37.288 219.226 37.1156 218.347 36.7891L216.954 40.5389C218.315 41.0444 219.761 41.288 221.274 41.288V37.288ZM218.379 36.8015C217.508 36.4605 216.774 35.9913 216.156 35.3978L213.385 38.2822C214.399 39.2567 215.585 40.0035 216.921 40.5265L218.379 36.8015ZM216.156 35.3978C215.532 34.7987 215.042 34.0965 214.681 33.2755L211.019 34.8845C211.586 36.1755 212.376 37.3133 213.385 38.2822L216.156 35.3978ZM214.691 33.2989C214.358 32.5141 214.178 31.6231 214.178 30.6H210.178C210.178 32.1049 210.446 33.5339 211.009 34.8611L214.691 33.2989ZM214.178 30.6C214.178 29.5769 214.358 28.6859 214.691 27.9011L211.009 26.3389C210.446 27.6661 210.178 29.0951 210.178 30.6H214.178ZM214.681 27.9245C215.042 27.1035 215.532 26.4013 216.156 25.8022L213.385 22.9178C212.376 23.8867 211.586 25.0245 211.019 26.3155L214.681 27.9245ZM216.142 25.8156C216.775 25.2188 217.515 24.7573 218.379 24.4315L216.969 20.6885C215.626 21.1946 214.429 21.9332 213.399 22.9044L216.142 25.8156ZM218.403 24.4225C219.251 24.0906 220.209 23.912 221.298 23.912V19.912C219.763 19.912 218.305 20.1654 216.945 20.6975L218.403 24.4225ZM221.298 23.912C222.517 23.912 223.55 24.1254 224.431 24.5117L226.037 20.8483C224.583 20.2106 222.992 19.912 221.298 19.912V23.912ZM224.461 24.5247C225.35 24.8967 226.074 25.4369 226.663 26.1559L229.757 23.6201C228.746 22.3871 227.487 21.4553 226.007 20.8353L224.461 24.5247ZM226.854 23.4184L224.358 25.7224L227.071 28.6616L229.567 26.3576L226.854 23.4184ZM227.217 25.8724C226.478 25.0309 225.615 24.3588 224.622 23.9073L222.967 27.5487C223.381 27.7372 223.798 28.0411 224.211 28.5116L227.217 25.8724ZM224.656 23.923C223.665 23.4502 222.6 23.224 221.49 23.224V27.224C222.044 27.224 222.515 27.3338 222.933 27.533L224.656 23.923ZM221.49 23.224C220.486 23.224 219.516 23.3887 218.603 23.7448L220.057 27.4712C220.457 27.3153 220.927 27.224 221.49 27.224V23.224ZM218.603 23.7448C217.699 24.0975 216.895 24.6149 216.212 25.2978L219.04 28.1262C219.318 27.8491 219.649 27.6305 220.057 27.4712L218.603 23.7448ZM216.212 25.2978C215.538 25.9719 215.018 26.763 214.651 27.65L218.346 29.182C218.522 28.757 218.754 28.4121 219.04 28.1262L216.212 25.2978ZM214.635 27.6889C214.277 28.606 214.114 29.5848 214.114 30.6H218.114C218.114 30.0152 218.207 29.538 218.361 29.1431L214.635 27.6889ZM214.114 30.6C214.114 31.6152 214.277 32.594 214.635 33.5111L218.361 32.0569C218.207 31.662 218.114 31.1848 218.114 30.6H214.114ZM214.651 33.55C215.018 34.437 215.538 35.2281 216.212 35.9022L219.04 33.0738C218.754 32.7879 218.522 32.443 218.346 32.018L214.651 33.55ZM216.212 35.9022C216.895 36.5851 217.699 37.1025 218.603 37.4552L220.057 33.7288C219.649 33.5695 219.318 33.3509 219.04 33.0738L216.212 35.9022ZM218.603 37.4552C219.516 37.8113 220.486 37.976 221.49 37.976V33.976C220.927 33.976 220.457 33.8847 220.057 33.7288L218.603 37.4552ZM221.49 37.976C222.586 37.976 223.639 37.7637 224.622 37.3167L222.967 33.6753C222.542 33.8683 222.059 33.976 221.49 33.976V37.976ZM224.656 37.301C225.643 36.8297 226.5 36.1409 227.233 35.2856L224.196 32.6824C223.777 33.1711 223.353 33.4903 222.933 33.691L224.656 37.301ZM224.358 35.4536L226.854 37.7576L229.567 34.8184L227.071 32.5144L224.358 35.4536ZM226.663 35.0201C226.07 35.7439 225.338 36.2959 224.44 36.6843L226.028 40.3557C227.498 39.7201 228.75 38.7841 229.757 37.5559L226.663 35.0201ZM224.431 36.6883C223.552 37.0735 222.512 37.288 221.274 37.288V41.288C222.98 41.288 224.58 40.9905 226.037 40.3517L224.431 36.6883Z" fill="#0E4495" mask="url(#path-4-outside-1_444_4)"/>
</svg>
