<svg width="24" height="24" viewBox="0 0 24 24" fill="none" xmlns="http://www.w3.org/2000/svg">
<path d="M3 14C3 19 7.02944 23 12 23C16.9706 23 21 19 21 14C21 6.95235 15.4812 2.97071 13.0868 1.57489C12.7855 1.39923 12.6348 1.3114 12.4683 1.33142C12.3348 1.34746 12.1864 1.43871 12.1119 1.55053C12.0188 1.69012 12.0295 1.86949 12.0509 2.22824C12.2471 5.52075 12.7852 12 9.42857 12C7.27186 12 6.92403 10.2804 6.86793 7.56244C6.85825 7.09364 6.85342 6.85924 6.72461 6.71989C6.62106 6.60787 6.4374 6.54268 6.28639 6.56435C6.09856 6.59132 5.96098 6.75374 5.68582 7.0786C4.55088 8.4185 3 10.8295 3 14Z" fill="white"/>
</svg>
