<svg width="25" height="24" viewBox="0 0 25 24" fill="none" xmlns="http://www.w3.org/2000/svg">
<path opacity="0.12" d="M4.5 11H20.5V17.2C20.5 18.8802 20.5 19.7202 20.173 20.362C19.8854 20.9265 19.4265 21.3854 18.862 21.673C18.2202 22 17.3802 22 15.7 22H9.3C7.61984 22 6.77976 22 6.13803 21.673C5.57354 21.3854 5.1146 20.9265 4.82698 20.362C4.5 19.7202 4.5 18.8802 4.5 17.2V11Z" fill="#1F87FF"/>
<path d="M20.5 11V17.2C20.5 18.8802 20.5 19.7202 20.173 20.362C19.8854 20.9265 19.4265 21.3854 18.862 21.673C18.2202 22 17.3802 22 15.7 22H9.3C7.61984 22 6.77976 22 6.13803 21.673C5.57354 21.3854 5.1146 20.9265 4.82698 20.362C4.5 19.7202 4.5 18.8802 4.5 17.2V11M20.5 11H4.5M20.5 11C21.6046 11 22.5 10.1046 22.5 9C22.5 7.89543 21.6046 7 20.5 7H4.5C3.39543 7 2.5 7.89543 2.5 9C2.5 10.1046 3.39543 11 4.5 11M12.5 7V22M12.5 7H16C17.3807 7 18.5 5.88071 18.5 4.5C18.5 3.11929 17.3807 2 16 2H15.9198C14.7803 2 13.7758 2.74741 13.4484 3.83881L12.5 7ZM12.5 7H9C7.61929 7 6.5 5.88071 6.5 4.5C6.5 3.11929 7.61929 2 9 2H9.08023C10.2197 2 11.2242 2.74741 11.5516 3.83881L12.5 7Z" stroke="#1F87FF" stroke-width="1.5" stroke-linecap="round" stroke-linejoin="round"/>
</svg>
