<svg width="28" height="28" viewBox="0 0 28 28" fill="none" xmlns="http://www.w3.org/2000/svg">
<path d="M14.0628 27.9375C14.9433 27.9375 15.6648 27.29 15.7871 26.3738C16.9977 18.2125 18.1105 17.0764 25.9612 16.1845C26.8661 16.0746 27.5632 15.3171 27.5632 14.4374C27.5632 13.5456 26.8784 12.8126 25.9735 12.6782C18.1717 11.5909 17.2056 10.638 15.7871 2.48908C15.6281 1.58501 14.931 0.9375 14.0628 0.9375C13.1701 0.9375 12.4609 1.58501 12.3141 2.5013C11.128 10.6502 10.0152 11.7864 2.17667 12.6782C1.2473 12.8004 0.5625 13.5335 0.5625 14.4374C0.5625 15.3171 1.22284 16.0502 2.15222 16.1845C9.96626 17.2963 10.9201 18.237 12.3141 26.3859C12.4976 27.3022 13.2068 27.9375 14.0628 27.9375Z" fill="url(#paint0_linear_1_941)"/>
<defs>
<linearGradient id="paint0_linear_1_941" x1="14.0628" y1="0.9375" x2="14.0628" y2="27.9375" gradientUnits="userSpaceOnUse">
<stop offset="0.445833" stop-color="#1068CE"/>
<stop offset="1" stop-color="white"/>
</linearGradient>
</defs>
</svg>
